<svg version="1.1" xmlns="http://www.w3.org/2000/svg" viewBox="0 0 1282.5 513.4416981804466" width="2565" height="1026.8833963608931">
  <!-- svg-source:excalidraw -->
  
  <defs>
    <style class="style-fonts">
      @font-face {
        font-family: "Virgil";
        src: url("https://excalidraw.com/Virgil.woff2");
      }
      @font-face {
        font-family: "Cascadia";
        src: url("https://excalidraw.com/Cascadia.woff2");
      }
    </style>
  </defs>
  <g stroke-linecap="round" transform="translate(110 218.08787043460256) rotate(0 75 75)"><path d="M16.09 28.56 C16.09 28.56, 16.09 28.56, 16.09 28.56 M16.09 28.56 C16.09 28.56, 16.09 28.56, 16.09 28.56 M8.61 43.26 C15.94 34.82, 23.27 26.39, 35.51 12.31 M8.61 43.26 C14 37.06, 19.39 30.86, 35.51 12.31 M6.38 51.92 C20.95 35.16, 35.52 18.39, 43.77 8.9 M6.38 51.92 C17.4 39.23, 28.43 26.55, 43.77 8.9 M4.15 60.58 C18.06 44.57, 31.98 28.57, 52.04 5.49 M4.15 60.58 C17.76 44.92, 31.38 29.25, 52.04 5.49 M2.57 68.49 C17.18 51.69, 31.78 34.89, 59.65 2.83 M2.57 68.49 C19.13 49.45, 35.68 30.41, 59.65 2.83 M1 76.4 C24.36 49.52, 47.72 22.65, 66.61 0.92 M1 76.4 C24.35 49.54, 47.7 22.68, 66.61 0.92 M1.4 82.04 C17.45 63.57, 33.5 45.1, 72.25 0.53 M1.4 82.04 C20.78 59.74, 40.17 37.44, 72.25 0.53 M3.1 86.17 C20.92 65.68, 38.73 45.18, 76.58 1.64 M3.1 86.17 C18.34 68.64, 33.59 51.1, 76.58 1.64 M2.84 92.57 C25.97 65.96, 49.1 39.35, 81.57 2 M2.84 92.57 C27.98 63.65, 53.12 34.73, 81.57 2 M3.89 97.46 C33.45 63.46, 63.01 29.45, 85.9 3.12 M3.89 97.46 C36.19 60.3, 68.49 23.14, 85.9 3.12 M5.6 101.59 C30.46 73, 55.31 44.4, 92.2 1.97 M5.6 101.59 C28.4 75.36, 51.21 49.13, 92.2 1.97 M7.3 105.73 C39.26 68.96, 71.22 32.2, 96.53 3.09 M7.3 105.73 C28.06 81.85, 48.81 57.98, 96.53 3.09 M9.67 109.1 C34.41 80.64, 59.15 52.18, 100.2 4.95 M9.67 109.1 C37.21 77.42, 64.75 45.74, 100.2 4.95 M11.37 113.24 C41.33 78.78, 71.28 44.32, 104.53 6.07 M11.37 113.24 C30.33 91.44, 49.28 69.64, 104.53 6.07 M13.74 116.62 C47.46 77.82, 81.19 39.02, 108.21 7.94 M13.74 116.62 C32.93 94.54, 52.11 72.47, 108.21 7.94 M16.1 120 C51.89 78.82, 87.68 37.65, 111.88 9.81 M16.1 120 C49.51 81.56, 82.92 43.13, 111.88 9.81 M18.46 123.38 C45.67 92.07, 72.88 60.77, 115.56 11.68 M18.46 123.38 C46.01 91.69, 73.55 60, 115.56 11.68 M20.83 126.75 C47.74 95.79, 74.66 64.83, 118.58 14.3 M20.83 126.75 C47.57 95.99, 74.31 65.22, 118.58 14.3 M23.84 129.38 C45.73 104.2, 67.62 79.02, 122.25 16.17 M23.84 129.38 C46.68 103.11, 69.51 76.84, 122.25 16.17 M26.86 132 C48.84 106.72, 70.81 81.44, 124.62 19.55 M26.86 132 C60.6 93.19, 94.34 54.37, 124.62 19.55 M29.88 134.63 C49.49 112.07, 69.1 89.51, 127.63 22.18 M29.88 134.63 C58.89 101.25, 87.91 67.88, 127.63 22.18 M32.9 137.25 C58.1 108.26, 83.3 79.27, 130.65 24.8 M32.9 137.25 C61.58 104.26, 90.26 71.26, 130.65 24.8 M35.92 139.88 C62.24 109.6, 88.56 79.32, 133.67 27.42 M35.92 139.88 C64.18 107.36, 92.45 74.85, 133.67 27.42 M39.59 141.74 C63.47 114.28, 87.35 86.81, 136.03 30.8 M39.59 141.74 C59.92 118.37, 80.24 94.99, 136.03 30.8 M43.27 143.61 C73.74 108.56, 104.21 73.51, 138.4 34.18 M43.27 143.61 C79.67 101.74, 116.07 59.87, 138.4 34.18 M47.6 144.73 C76 112.06, 104.4 79.39, 140.76 37.56 M47.6 144.73 C80.39 107.01, 113.18 69.29, 140.76 37.56 M51.27 146.6 C77.3 116.66, 103.33 86.72, 143.12 40.94 M51.27 146.6 C80.07 113.48, 108.86 80.36, 143.12 40.94 M55.61 147.71 C89.32 108.93, 123.04 70.14, 144.83 45.07 M55.61 147.71 C85.46 113.38, 115.31 79.04, 144.83 45.07 M59.28 149.58 C87.67 116.93, 116.06 84.27, 146.54 49.21 M59.28 149.58 C92.46 111.41, 125.64 73.24, 146.54 49.21 M64.27 149.94 C85.63 125.37, 106.99 100.79, 148.9 52.59 M64.27 149.94 C92.9 117, 121.53 84.07, 148.9 52.59 M68.6 151.06 C88.67 127.97, 108.74 104.88, 148.64 58.98 M68.6 151.06 C88.14 128.58, 107.68 106.1, 148.64 58.98 M73.59 151.42 C100.35 120.63, 127.12 89.84, 149.69 63.87 M73.59 151.42 C96.85 124.66, 120.12 97.89, 149.69 63.87 M77.92 152.53 C100.08 127.04, 122.24 101.55, 151.4 68.01 M77.92 152.53 C102.07 124.75, 126.22 96.96, 151.4 68.01 M84.87 150.63 C106.95 125.24, 129.02 99.84, 150.48 75.16 M84.87 150.63 C107.28 124.85, 129.69 99.08, 150.48 75.16 M91.83 148.72 C112.69 124.72, 133.55 100.72, 150.22 81.56 M91.83 148.72 C104.68 133.94, 117.54 119.15, 150.22 81.56 M99.44 146.07 C115.44 127.65, 131.45 109.24, 151.92 85.69 M99.44 146.07 C115.88 127.15, 132.32 108.24, 151.92 85.69 M107.71 142.65 C121.99 126.22, 136.28 109.79, 150.35 93.6 M107.71 142.65 C119.1 129.55, 130.49 116.45, 150.35 93.6 M115.97 139.24 C126.54 127.08, 137.11 114.92, 142.87 108.3 M115.97 139.24 C122.72 131.48, 129.46 123.73, 142.87 108.3" stroke="#868e96" stroke-width="0.5" fill="none"></path><path d="M150 75 C150 77.8, 149.84 80.62, 149.53 83.4 C149.22 86.18, 148.74 88.96, 148.12 91.69 C147.5 94.42, 146.72 97.13, 145.79 99.77 C144.87 102.41, 143.79 105.02, 142.57 107.54 C141.36 110.06, 139.99 112.53, 138.5 114.9 C137.02 117.27, 135.38 119.57, 133.64 121.76 C131.89 123.95, 130.01 126.05, 128.03 128.03 C126.05 130.01, 123.95 131.89, 121.76 133.64 C119.57 135.38, 117.27 137.02, 114.9 138.5 C112.53 139.99, 110.06 141.36, 107.54 142.57 C105.02 143.79, 102.41 144.87, 99.77 145.79 C97.13 146.72, 94.42 147.5, 91.69 148.12 C88.96 148.74, 86.18 149.22, 83.4 149.53 C80.62 149.84, 77.8 150, 75 150 C72.2 150, 69.38 149.84, 66.6 149.53 C63.82 149.22, 61.04 148.74, 58.31 148.12 C55.58 147.5, 52.87 146.72, 50.23 145.79 C47.59 144.87, 44.98 143.79, 42.46 142.57 C39.94 141.36, 37.47 139.99, 35.1 138.5 C32.73 137.02, 30.43 135.38, 28.24 133.64 C26.05 131.89, 23.95 130.01, 21.97 128.03 C19.99 126.05, 18.11 123.95, 16.36 121.76 C14.62 119.57, 12.98 117.27, 11.5 114.9 C10.01 112.53, 8.64 110.06, 7.43 107.54 C6.21 105.02, 5.13 102.41, 4.21 99.77 C3.28 97.13, 2.5 94.42, 1.88 91.69 C1.26 88.96, 0.78 86.18, 0.47 83.4 C0.16 80.62, 0 77.8, 0 75 C0 72.2, 0.16 69.38, 0.47 66.6 C0.78 63.82, 1.26 61.04, 1.88 58.31 C2.5 55.58, 3.28 52.87, 4.21 50.23 C5.13 47.59, 6.21 44.98, 7.43 42.46 C8.64 39.94, 10.01 37.47, 11.5 35.1 C12.98 32.73, 14.62 30.43, 16.36 28.24 C18.11 26.05, 19.99 23.95, 21.97 21.97 C23.95 19.99, 26.05 18.11, 28.24 16.36 C30.43 14.62, 32.73 12.98, 35.1 11.5 C37.47 10.01, 39.94 8.64, 42.46 7.43 C44.98 6.21, 47.59 5.13, 50.23 4.21 C52.87 3.28, 55.58 2.5, 58.31 1.88 C61.04 1.26, 63.82 0.78, 66.6 0.47 C69.38 0.16, 72.2 0, 75 0 C77.8 0, 80.62 0.16, 83.4 0.47 C86.18 0.78, 88.96 1.26, 91.69 1.88 C94.42 2.5, 97.13 3.28, 99.77 4.21 C102.41 5.13, 105.02 6.21, 107.54 7.43 C110.06 8.64, 112.53 10.01, 114.9 11.5 C117.27 12.98, 119.57 14.62, 121.76 16.36 C123.95 18.11, 126.05 19.99, 128.03 21.97 C130.01 23.95, 131.89 26.05, 133.64 28.24 C135.38 30.43, 137.02 32.73, 138.5 35.1 C139.99 37.47, 141.36 39.94, 142.57 42.46 C143.79 44.98, 144.87 47.59, 145.79 50.23 C146.72 52.87, 147.5 55.58, 148.12 58.31 C148.74 61.04, 149.22 63.82, 149.53 66.6 C149.84 69.38, 149.92 73.6, 150 75 C150.08 76.4, 150.08 73.6, 150 75" stroke="#000000" stroke-width="1" fill="none"></path></g><g transform="translate(149.5 281.08787043460256) rotate(0 35.5 12)"><text x="35.5" y="17" font-family="Helvetica, Segoe UI Emoji" font-size="20px" fill="#000000" text-anchor="middle" style="white-space: pre;" direction="ltr">Unseen</text></g><g stroke-linecap="round" transform="translate(446 238.08787043460256) rotate(0 71.5 71.5)"><path d="M15.65 26.86 C15.65 26.86, 15.65 26.86, 15.65 26.86 M15.65 26.86 C15.65 26.86, 15.65 26.86, 15.65 26.86 M5.95 50.22 C19.2 34.97, 32.45 19.73, 42.03 8.71 M5.95 50.22 C20.16 33.87, 34.37 17.52, 42.03 8.71 M2.8 66.03 C22.28 43.63, 41.76 21.22, 57.25 3.39 M2.8 66.03 C23.54 42.17, 44.28 18.31, 57.25 3.39 M0.96 80.34 C23.46 54.46, 45.96 28.58, 67.23 4.11 M0.96 80.34 C14.96 64.24, 28.95 48.15, 67.23 4.11 M3.72 89.36 C23.89 66.16, 44.07 42.95, 80.48 1.06 M3.72 89.36 C24.75 65.17, 45.78 40.98, 80.48 1.06 M7.13 97.63 C39.33 60.59, 71.53 23.55, 89.14 3.29 M7.13 97.63 C36.34 64.03, 65.55 30.43, 89.14 3.29 M10.55 105.9 C35.13 77.62, 59.71 49.34, 97.15 6.27 M10.55 105.9 C33.71 79.25, 56.87 52.61, 97.15 6.27 M15.27 112.65 C47.28 75.83, 79.29 39.01, 105.15 9.26 M15.27 112.65 C39.1 85.25, 62.92 57.84, 105.15 9.26 M20 119.41 C44.89 90.78, 69.78 62.15, 112.5 13 M20 119.41 C45.8 89.74, 71.59 60.06, 112.5 13 M25.38 125.41 C53.05 93.59, 80.72 61.76, 118.54 18.25 M25.38 125.41 C56.73 89.36, 88.07 53.3, 118.54 18.25 M31.42 130.66 C59.76 98.06, 88.1 65.46, 124.58 23.49 M31.42 130.66 C67.57 89.08, 103.72 47.49, 124.58 23.49 M37.46 135.91 C67.03 101.89, 96.61 67.86, 129.96 29.5 M37.46 135.91 C68.12 100.63, 98.79 65.36, 129.96 29.5 M44.81 139.65 C72.9 107.34, 100.99 75.02, 134.69 36.25 M44.81 139.65 C66.14 115.11, 87.48 90.56, 134.69 36.25 M52.81 142.63 C84.54 106.14, 116.26 69.64, 139.41 43.01 M52.81 142.63 C85.19 105.39, 117.56 68.15, 139.41 43.01 M60.82 145.62 C81.71 121.58, 102.61 97.54, 142.82 51.28 M60.82 145.62 C79.82 123.76, 98.83 101.9, 142.82 51.28 M72.76 144.07 C87.94 126.61, 103.13 109.14, 142.96 63.32 M72.76 144.07 C97.3 115.84, 121.84 87.61, 142.96 63.32 M82.73 144.8 C103.25 121.19, 123.77 97.59, 145.06 73.1 M82.73 144.8 C103.83 120.52, 124.93 96.25, 145.06 73.1 M97.3 140.23 C110.28 125.31, 123.25 110.38, 142.57 88.16 M97.3 140.23 C111.21 124.23, 125.13 108.22, 142.57 88.16" stroke="#fab005" stroke-width="1" fill="none"></path><path d="M143 71.5 C143 74.17, 142.85 76.85, 142.55 79.51 C142.25 82.16, 141.8 84.81, 141.21 87.41 C140.61 90.01, 139.87 92.6, 138.99 95.11 C138.11 97.63, 137.08 100.12, 135.92 102.52 C134.76 104.93, 133.46 107.28, 132.04 109.54 C130.62 111.8, 129.06 113.99, 127.4 116.08 C125.74 118.17, 123.95 120.17, 122.06 122.06 C120.17 123.95, 118.17 125.74, 116.08 127.4 C113.99 129.06, 111.8 130.62, 109.54 132.04 C107.28 133.46, 104.93 134.76, 102.52 135.92 C100.12 137.08, 97.63 138.11, 95.11 138.99 C92.6 139.87, 90.01 140.61, 87.41 141.21 C84.81 141.8, 82.16 142.25, 79.51 142.55 C76.85 142.85, 74.17 143, 71.5 143 C68.83 143, 66.15 142.85, 63.49 142.55 C60.84 142.25, 58.19 141.8, 55.59 141.21 C52.99 140.61, 50.4 139.87, 47.89 138.99 C45.37 138.11, 42.88 137.08, 40.48 135.92 C38.07 134.76, 35.72 133.46, 33.46 132.04 C31.2 130.62, 29.01 129.06, 26.92 127.4 C24.83 125.74, 22.83 123.95, 20.94 122.06 C19.05 120.17, 17.26 118.17, 15.6 116.08 C13.94 113.99, 12.38 111.8, 10.96 109.54 C9.54 107.28, 8.24 104.93, 7.08 102.52 C5.92 100.12, 4.89 97.63, 4.01 95.11 C3.13 92.6, 2.39 90.01, 1.79 87.41 C1.2 84.81, 0.75 82.16, 0.45 79.51 C0.15 76.85, 0 74.17, 0 71.5 C0 68.83, 0.15 66.15, 0.45 63.49 C0.75 60.84, 1.2 58.19, 1.79 55.59 C2.39 52.99, 3.13 50.4, 4.01 47.89 C4.89 45.37, 5.92 42.88, 7.08 40.48 C8.24 38.07, 9.54 35.72, 10.96 33.46 C12.38 31.2, 13.94 29.01, 15.6 26.92 C17.26 24.83, 19.05 22.83, 20.94 20.94 C22.83 19.05, 24.83 17.26, 26.92 15.6 C29.01 13.94, 31.2 12.38, 33.46 10.96 C35.72 9.54, 38.07 8.24, 40.48 7.08 C42.88 5.92, 45.37 4.89, 47.89 4.01 C50.4 3.13, 52.99 2.39, 55.59 1.79 C58.19 1.2, 60.84 0.75, 63.49 0.45 C66.15 0.15, 68.83 0, 71.5 0 C74.17 0, 76.85 0.15, 79.51 0.45 C82.16 0.75, 84.81 1.2, 87.41 1.79 C90.01 2.39, 92.6 3.13, 95.11 4.01 C97.63 4.89, 100.12 5.92, 102.52 7.08 C104.93 8.24, 107.28 9.54, 109.54 10.96 C111.8 12.38, 113.99 13.94, 116.08 15.6 C118.17 17.26, 120.17 19.05, 122.06 20.94 C123.95 22.83, 125.74 24.83, 127.4 26.92 C129.06 29.01, 130.62 31.2, 132.04 33.46 C133.46 35.72, 134.76 38.07, 135.92 40.48 C137.08 42.88, 138.11 45.37, 138.99 47.89 C139.87 50.4, 140.61 52.99, 141.21 55.59 C141.8 58.19, 142.25 60.84, 142.55 63.49 C142.85 66.15, 142.93 70.17, 143 71.5 C143.07 72.83, 143.07 70.17, 143 71.5" stroke="#000000" stroke-width="2" fill="none"></path></g><g transform="translate(478 297.58787043460256) rotate(0 39.5 12)"><text x="39.5" y="17" font-family="Helvetica, Segoe UI Emoji" font-size="20px" fill="#000000" text-anchor="middle" style="white-space: pre;" direction="ltr">Learning</text></g><g mask="url(#mask-bspFPnFKscMWelXKunpZc)" stroke-linecap="round"><g transform="translate(228.6659039980001 229.6584700903029) rotate(0 128.9664610098917 -6.27783955566278)"><path d="M0 0 C20.89 -3.43, 82.35 -21.92, 125.33 -20.57 C168.32 -19.22, 235.83 3.31, 257.93 8.09 M0 0 C20.89 -3.43, 82.35 -21.92, 125.33 -20.57 C168.32 -19.22, 235.83 3.31, 257.93 8.09" stroke="#000000" stroke-width="1" fill="none"></path></g><g transform="translate(228.6659039980001 229.6584700903029) rotate(0 128.9664610098917 -6.27783955566278)"><path d="M257.93 8.09 L243.17 10.72 L246.42 -1.53 L257.93 8.09" stroke="none" stroke-width="0" fill="#000000" fill-rule="evenodd"></path><path d="M257.93 8.09 C253.89 8.81, 249.85 9.53, 243.17 10.72 M257.93 8.09 C252.36 9.08, 246.8 10.07, 243.17 10.72 M243.17 10.72 C244.05 7.38, 244.94 4.04, 246.42 -1.53 M243.17 10.72 C243.82 8.27, 244.47 5.81, 246.42 -1.53 M246.42 -1.53 C250.91 2.22, 255.39 5.96, 257.93 8.09 M246.42 -1.53 C249.82 1.3, 253.21 4.14, 257.93 8.09 M257.93 8.09 C257.93 8.09, 257.93 8.09, 257.93 8.09 M257.93 8.09 C257.93 8.09, 257.93 8.09, 257.93 8.09" stroke="#000000" stroke-width="1" fill="none"></path></g></g><mask id="mask-bspFPnFKscMWelXKunpZc"><rect x="0" y="0" fill="#fff" width="586.5988260177835" height="358.31407262939587"></rect><rect x="288.5" y="197.08787043460256" fill="#000" width="131" height="24" opacity="1"></rect></mask><g transform="translate(288.5 197.08787043460256) rotate(0 69.13236500789179 26.292760100037555)"><text x="65.5" y="17" font-family="Helvetica, Segoe UI Emoji" font-size="20px" fill="#000000" text-anchor="middle" style="white-space: pre;" direction="ltr">first scheduled</text></g><g stroke-linecap="round" transform="translate(1006.5 283.58787043460256) rotate(0 71.5 71.5)"><path d="M15.65 26.86 C15.65 26.86, 15.65 26.86, 15.65 26.86 M15.65 26.86 C15.65 26.86, 15.65 26.86, 15.65 26.86 M5.95 50.22 C15.92 38.75, 25.89 27.28, 42.03 8.71 M5.95 50.22 C14.03 40.92, 22.11 31.62, 42.03 8.71 M2.8 66.03 C24.46 41.12, 46.12 16.2, 57.25 3.39 M2.8 66.03 C13.79 53.39, 24.79 40.74, 57.25 3.39 M0.96 80.34 C25.91 51.64, 50.86 22.95, 67.23 4.11 M0.96 80.34 C21.27 56.98, 41.57 33.62, 67.23 4.11 M3.72 89.36 C21.11 69.35, 38.51 49.34, 80.48 1.06 M3.72 89.36 C29.65 59.54, 55.57 29.71, 80.48 1.06 M7.13 97.63 C33.97 66.76, 60.81 35.88, 89.14 3.29 M7.13 97.63 C27.12 74.63, 47.11 51.64, 89.14 3.29 M10.55 105.9 C44.96 66.31, 79.37 26.73, 97.15 6.27 M10.55 105.9 C40.42 71.53, 70.3 37.16, 97.15 6.27 M15.27 112.65 C39.6 84.67, 63.92 56.69, 105.15 9.26 M15.27 112.65 C47.6 75.47, 79.92 38.29, 105.15 9.26 M20 119.41 C45.04 90.6, 70.09 61.79, 112.5 13 M20 119.41 C41.14 95.09, 62.28 70.78, 112.5 13 M25.38 125.41 C61.35 84.03, 97.32 42.65, 118.54 18.25 M25.38 125.41 C57.07 88.96, 88.76 52.51, 118.54 18.25 M31.42 130.66 C54.25 104.4, 77.08 78.14, 124.58 23.49 M31.42 130.66 C64.56 92.54, 97.69 54.42, 124.58 23.49 M37.46 135.91 C64.35 104.98, 91.24 74.04, 129.96 29.5 M37.46 135.91 C59.1 111.01, 80.74 86.11, 129.96 29.5 M44.81 139.65 C76.81 102.84, 108.81 66.03, 134.69 36.25 M44.81 139.65 C67.86 113.14, 90.9 86.62, 134.69 36.25 M52.81 142.63 C73.5 118.84, 94.19 95.04, 139.41 43.01 M52.81 142.63 C74.65 117.51, 96.5 92.38, 139.41 43.01 M60.82 145.62 C83.53 119.5, 106.23 93.37, 142.82 51.28 M60.82 145.62 C79.11 124.57, 97.41 103.52, 142.82 51.28 M72.76 144.07 C95.41 118.02, 118.06 91.97, 142.96 63.32 M72.76 144.07 C98.63 114.31, 124.5 84.55, 142.96 63.32 M82.73 144.8 C102.58 121.97, 122.43 99.14, 145.06 73.1 M82.73 144.8 C102.09 122.53, 121.45 100.26, 145.06 73.1 M97.3 140.23 C109.59 126.1, 121.88 111.96, 142.57 88.16 M97.3 140.23 C111.74 123.62, 126.19 107, 142.57 88.16" stroke="#82c91e" stroke-width="1" fill="none"></path><path d="M143 71.5 C143 74.17, 142.85 76.85, 142.55 79.51 C142.25 82.16, 141.8 84.81, 141.21 87.41 C140.61 90.01, 139.87 92.6, 138.99 95.11 C138.11 97.63, 137.08 100.12, 135.92 102.52 C134.76 104.93, 133.46 107.28, 132.04 109.54 C130.62 111.8, 129.06 113.99, 127.4 116.08 C125.74 118.17, 123.95 120.17, 122.06 122.06 C120.17 123.95, 118.17 125.74, 116.08 127.4 C113.99 129.06, 111.8 130.62, 109.54 132.04 C107.28 133.46, 104.93 134.76, 102.52 135.92 C100.12 137.08, 97.63 138.11, 95.11 138.99 C92.6 139.87, 90.01 140.61, 87.41 141.21 C84.81 141.8, 82.16 142.25, 79.51 142.55 C76.85 142.85, 74.17 143, 71.5 143 C68.83 143, 66.15 142.85, 63.49 142.55 C60.84 142.25, 58.19 141.8, 55.59 141.21 C52.99 140.61, 50.4 139.87, 47.89 138.99 C45.37 138.11, 42.88 137.08, 40.48 135.92 C38.07 134.76, 35.72 133.46, 33.46 132.04 C31.2 130.62, 29.01 129.06, 26.92 127.4 C24.83 125.74, 22.83 123.95, 20.94 122.06 C19.05 120.17, 17.26 118.17, 15.6 116.08 C13.94 113.99, 12.38 111.8, 10.96 109.54 C9.54 107.28, 8.24 104.93, 7.08 102.52 C5.92 100.12, 4.89 97.63, 4.01 95.11 C3.13 92.6, 2.39 90.01, 1.79 87.41 C1.2 84.81, 0.75 82.16, 0.45 79.51 C0.15 76.85, 0 74.17, 0 71.5 C0 68.83, 0.15 66.15, 0.45 63.49 C0.75 60.84, 1.2 58.19, 1.79 55.59 C2.39 52.99, 3.13 50.4, 4.01 47.89 C4.89 45.37, 5.92 42.88, 7.08 40.48 C8.24 38.07, 9.54 35.72, 10.96 33.46 C12.38 31.2, 13.94 29.01, 15.6 26.92 C17.26 24.83, 19.05 22.83, 20.94 20.94 C22.83 19.05, 24.83 17.26, 26.92 15.6 C29.01 13.94, 31.2 12.38, 33.46 10.96 C35.72 9.54, 38.07 8.24, 40.48 7.08 C42.88 5.92, 45.37 4.89, 47.89 4.01 C50.4 3.13, 52.99 2.39, 55.59 1.79 C58.19 1.2, 60.84 0.75, 63.49 0.45 C66.15 0.15, 68.83 0, 71.5 0 C74.17 0, 76.85 0.15, 79.51 0.45 C82.16 0.75, 84.81 1.2, 87.41 1.79 C90.01 2.39, 92.6 3.13, 95.11 4.01 C97.63 4.89, 100.12 5.92, 102.52 7.08 C104.93 8.24, 107.28 9.54, 109.54 10.96 C111.8 12.38, 113.99 13.94, 116.08 15.6 C118.17 17.26, 120.17 19.05, 122.06 20.94 C123.95 22.83, 125.74 24.83, 127.4 26.92 C129.06 29.01, 130.62 31.2, 132.04 33.46 C133.46 35.72, 134.76 38.07, 135.92 40.48 C137.08 42.88, 138.11 45.37, 138.99 47.89 C139.87 50.4, 140.61 52.99, 141.21 55.59 C141.8 58.19, 142.25 60.84, 142.55 63.49 C142.85 66.15, 142.93 70.17, 143 71.5 C143.07 72.83, 143.07 70.17, 143 71.5" stroke="#000000" stroke-width="2" fill="none"></path></g><g transform="translate(1031 343.08787043460256) rotate(0 47 12)"><text x="47" y="17" font-family="Helvetica, Segoe UI Emoji" font-size="20px" fill="#000000" text-anchor="middle" style="white-space: pre;" direction="ltr">Reviewing</text></g><g mask="url(#mask-9xo-Z8HQXacm0Nqc7TzLv)" stroke-linecap="round"><g transform="translate(592.3861039668016 308.6390901021932) rotate(0 212.82149018931887 -53.77882203290983)"><path d="M0 0 C40.1 -17.93, 169.67 -106.69, 240.61 -107.55 C311.55 -108.41, 394.8 -22.24, 425.64 -5.17 M0 0 C40.1 -17.93, 169.67 -106.69, 240.61 -107.55 C311.55 -108.41, 394.8 -22.24, 425.64 -5.17" stroke="#000000" stroke-width="2" fill="none"></path></g><g transform="translate(592.3861039668016 308.6390901021932) rotate(0 212.82149018931887 -53.77882203290983)"><path d="M425.64 -5.17 L410.95 -8.18 L418.5 -18.37 L425.64 -5.17" stroke="none" stroke-width="0" fill="#000000" fill-rule="evenodd"></path><path d="M425.64 -5.17 C421.53 -6.02, 417.42 -6.86, 410.95 -8.18 M425.64 -5.17 C422.21 -5.88, 418.77 -6.58, 410.95 -8.18 M410.95 -8.18 C413.11 -11.09, 415.26 -14, 418.5 -18.37 M410.95 -8.18 C412.84 -10.74, 414.74 -13.29, 418.5 -18.37 M418.5 -18.37 C420.42 -14.82, 422.34 -11.27, 425.64 -5.17 M418.5 -18.37 C420.85 -14.04, 423.19 -9.71, 425.64 -5.17 M425.64 -5.17 C425.64 -5.17, 425.64 -5.17, 425.64 -5.17 M425.64 -5.17 C425.64 -5.17, 425.64 -5.17, 425.64 -5.17" stroke="#000000" stroke-width="2" fill="none"></path></g></g><mask id="mask-9xo-Z8HQXacm0Nqc7TzLv"><rect x="0" y="0" fill="#fff" width="1118.0290843454393" height="516.1903097697839"></rect><rect x="683.4999999999998" y="177.08787043460256" fill="#000" width="299" height="48" opacity="1"></rect></mask><g transform="translate(683.4999999999998 177.08787043460256) rotate(0 121.70759415612065 77.77239763468083)"><text x="149.5" y="17" font-family="Helvetica, Segoe UI Emoji" font-size="20px" fill="#000000" text-anchor="middle" style="white-space: pre;" direction="ltr">correct &amp;&amp; exhausted all learning </text><text x="149.5" y="41" font-family="Helvetica, Segoe UI Emoji" font-size="20px" fill="#000000" text-anchor="middle" style="white-space: pre;" direction="ltr">steps</text></g><g mask="url(#mask-am9Z-VL2IGqBkXK7D9AW2)" stroke-linecap="round"><g transform="translate(521.1012448870881 233.446083953889) rotate(0 60.09725478185726 -82.15437870634122)"><path d="M0 0 C16.65 -37, 80.25 -207.35, 99.9 -222.01 C119.55 -236.68, 123.43 -134.87, 117.9 -88.01 C112.37 -41.16, 75.25 34.61, 66.72 59.14 M0 0 C16.65 -37, 80.25 -207.35, 99.9 -222.01 C119.55 -236.68, 123.43 -134.87, 117.9 -88.01 C112.37 -41.16, 75.25 34.61, 66.72 59.14" stroke="#000000" stroke-width="2" fill="none"></path></g><g transform="translate(521.1012448870881 233.446083953889) rotate(0 60.09725478185726 -82.15437870634122)"><path d="M66.72 59.14 L65.99 44.16 L77.73 48.95 L66.72 59.14" stroke="none" stroke-width="0" fill="#000000" fill-rule="evenodd"></path><path d="M66.72 59.14 C66.44 53.33, 66.16 47.52, 65.99 44.16 M66.72 59.14 C66.51 54.72, 66.29 50.3, 65.99 44.16 M65.99 44.16 C69.23 45.48, 72.48 46.8, 77.73 48.95 M65.99 44.16 C68.62 45.23, 71.25 46.3, 77.73 48.95 M77.73 48.95 C73.35 53, 68.97 57.05, 66.72 59.14 M77.73 48.95 C75.51 51, 73.29 53.06, 66.72 59.14 M66.72 59.14 C66.72 59.14, 66.72 59.14, 66.72 59.14 M66.72 59.14 C66.72 59.14, 66.72 59.14, 66.72 59.14" stroke="#000000" stroke-width="2" fill="none"></path></g></g><mask id="mask-am9Z-VL2IGqBkXK7D9AW2"><rect x="0" y="0" fill="#fff" width="739" height="614.597874014382"></rect><rect x="538.293706549422" y="39.58956135408454" fill="#000" width="205" height="72" opacity="1"></rect></mask><g transform="translate(538.293706549422 39.58956135408454) rotate(0 42.90479311952333 111.70214389346324)"><text x="102.5" y="17" font-family="Helvetica, Segoe UI Emoji" font-size="20px" fill="#000000" text-anchor="middle" style="white-space: pre;" direction="ltr">incorrect || (correct &amp;&amp; </text><text x="102.5" y="41" font-family="Helvetica, Segoe UI Emoji" font-size="20px" fill="#000000" text-anchor="middle" style="white-space: pre;" direction="ltr">remaining learning </text><text x="102.5" y="65" font-family="Helvetica, Segoe UI Emoji" font-size="20px" fill="#000000" text-anchor="middle" style="white-space: pre;" direction="ltr">steps)</text></g><g mask="url(#mask-23gsgxa_UmJJd7YFD4Mrn)" stroke-linecap="round"><g transform="translate(1098.4457544179252 285.9637095155639) rotate(0 71.4292306625872 58.6669722346071)"><path d="M0 0 C23.76 9.41, 136.25 36.91, 142.55 56.47 C148.86 76.02, 55.28 107.19, 37.83 117.33 M0 0 C23.76 9.41, 136.25 36.91, 142.55 56.47 C148.86 76.02, 55.28 107.19, 37.83 117.33" stroke="#000000" stroke-width="2" fill="none"></path></g><g transform="translate(1098.4457544179252 285.9637095155639) rotate(0 71.4292306625872 58.6669722346071)"><path d="M37.83 117.33 L47.7 106.04 L52.82 117.64 L37.83 117.33" stroke="none" stroke-width="0" fill="#000000" fill-rule="evenodd"></path><path d="M37.83 117.33 C40.12 114.71, 42.41 112.09, 47.7 106.04 M37.83 117.33 C40.24 114.58, 42.65 111.82, 47.7 106.04 M47.7 106.04 C49.58 110.29, 51.45 114.54, 52.82 117.64 M47.7 106.04 C49.25 109.55, 50.8 113.06, 52.82 117.64 M52.82 117.64 C47.24 117.52, 41.67 117.41, 37.83 117.33 M52.82 117.64 C49.41 117.57, 46 117.5, 37.83 117.33 M37.83 117.33 C37.83 117.33, 37.83 117.33, 37.83 117.33 M37.83 117.33 C37.83 117.33, 37.83 117.33, 37.83 117.33" stroke="#000000" stroke-width="2" fill="none"></path></g></g><mask id="mask-23gsgxa_UmJJd7YFD4Mrn"><rect x="0" y="0" fill="#fff" width="1341" height="503.2976539847781"></rect><rect x="1209.4999999999998" y="330.43162043460256" fill="#000" width="63" height="24" opacity="1"></rect></mask><g transform="translate(1209.5 330.43162043460256) rotate(0 -39.625014919487626 14.199061315568429)"><text x="31.5" y="17" font-family="Helvetica, Segoe UI Emoji" font-size="20px" fill="#000000" text-anchor="middle" style="white-space: pre;" direction="ltr">correct</text></g><g mask="url(#mask-aNwYM-jpn7-K3oha43q9K)" stroke-linecap="round"><g transform="translate(1047.763241885616 425.43316960222455) rotate(0 -283.24886712830397 15.56620607967028)"><path d="M0 0 C-38.13 12.99, -139.8 76.31, -228.76 77.97 C-317.72 79.63, -478.39 30.77, -533.76 9.97 C-589.14 -10.84, -556.46 -37.4, -561 -46.88 M0 0 C-38.13 12.99, -139.8 76.31, -228.76 77.97 C-317.72 79.63, -478.39 30.77, -533.76 9.97 C-589.14 -10.84, -556.46 -37.4, -561 -46.88" stroke="#000000" stroke-width="2" fill="none"></path></g><g transform="translate(1047.763241885616 425.43316960222455) rotate(0 -283.24886712830397 15.56620607967028)"><path d="M-561 -46.88 L-557.54 -32.28 L-569.95 -34.84 L-561 -46.88" stroke="none" stroke-width="0" fill="#000000" fill-rule="evenodd"></path><path d="M-561 -46.88 C-559.99 -42.62, -558.98 -38.37, -557.54 -32.28 M-561 -46.88 C-559.99 -42.6, -558.97 -38.32, -557.54 -32.28 M-557.54 -32.28 C-561.07 -33.01, -564.6 -33.74, -569.95 -34.84 M-557.54 -32.28 C-561.09 -33.01, -564.64 -33.75, -569.95 -34.84 M-569.95 -34.84 C-567.3 -38.4, -564.65 -41.97, -561 -46.88 M-569.95 -34.84 C-567.57 -38.04, -565.19 -41.24, -561 -46.88 M-561 -46.88 C-561 -46.88, -561 -46.88, -561 -46.88 M-561 -46.88 C-561 -46.88, -561 -46.88, -561 -46.88" stroke="#000000" stroke-width="2" fill="none"></path></g></g><mask id="mask-aNwYM-jpn7-K3oha43q9K"><rect x="0" y="0" fill="#fff" width="1708.7659045078176" height="650.276486853484"></rect><rect x="620.9261291558332" y="467.44619704508307" fill="#000" width="79" height="24" opacity="1"></rect></mask><g transform="translate(620.9261291558332 467.44619704508307) rotate(0 143.58824560147883 -26.446821363188235)"><text x="39.5" y="17" font-family="Helvetica, Segoe UI Emoji" font-size="20px" fill="#000000" text-anchor="middle" style="white-space: pre;" direction="ltr">incorrect</text></g><g stroke-linecap="round"><g transform="translate(10 284.75974543460256) rotate(0 47.5 0.5)"><path d="M0 0 C15.83 0.17, 79.17 0.83, 95 1 M0 0 C15.83 0.17, 79.17 0.83, 95 1" stroke="#000000" stroke-width="2" fill="none"></path></g><g transform="translate(10 284.75974543460256) rotate(0 47.5 0.5)"><path d="M8.5 0 C8.5 0.49, 8.46 0.99, 8.37 1.48 C8.29 1.96, 8.16 2.44, 7.99 2.91 C7.82 3.37, 7.61 3.82, 7.36 4.25 C7.12 4.68, 6.83 5.09, 6.51 5.46 C6.2 5.84, 5.84 6.2, 5.46 6.51 C5.09 6.83, 4.68 7.12, 4.25 7.36 C3.82 7.61, 3.37 7.82, 2.91 7.99 C2.44 8.16, 1.96 8.29, 1.48 8.37 C0.99 8.46, 0.49 8.5, 0 8.5 C-0.49 8.5, -0.99 8.46, -1.48 8.37 C-1.96 8.29, -2.44 8.16, -2.91 7.99 C-3.37 7.82, -3.82 7.61, -4.25 7.36 C-4.68 7.12, -5.09 6.83, -5.46 6.51 C-5.84 6.2, -6.2 5.84, -6.51 5.46 C-6.83 5.09, -7.12 4.68, -7.36 4.25 C-7.61 3.82, -7.82 3.37, -7.99 2.91 C-8.16 2.44, -8.29 1.96, -8.37 1.48 C-8.46 0.99, -8.5 0.49, -8.5 0 C-8.5 -0.49, -8.46 -0.99, -8.37 -1.48 C-8.29 -1.96, -8.16 -2.44, -7.99 -2.91 C-7.82 -3.37, -7.61 -3.82, -7.36 -4.25 C-7.12 -4.68, -6.83 -5.09, -6.51 -5.46 C-6.2 -5.84, -5.84 -6.2, -5.46 -6.51 C-5.09 -6.83, -4.68 -7.12, -4.25 -7.36 C-3.82 -7.61, -3.37 -7.82, -2.91 -7.99 C-2.44 -8.16, -1.96 -8.29, -1.48 -8.37 C-0.99 -8.46, -0.49 -8.5, 0 -8.5 C0.49 -8.5, 0.99 -8.46, 1.48 -8.37 C1.96 -8.29, 2.44 -8.16, 2.91 -7.99 C3.37 -7.82, 3.82 -7.61, 4.25 -7.36 C4.68 -7.12, 5.09 -6.83, 5.46 -6.51 C5.84 -6.2, 6.2 -5.84, 6.51 -5.46 C6.83 -5.09, 7.12 -4.68, 7.36 -4.25 C7.61 -3.82, 7.82 -3.37, 7.99 -2.91 C8.16 -2.44, 8.29 -1.96, 8.37 -1.48 C8.46 -0.99, 8.48 -0.25, 8.5 0 C8.52 0.25, 8.52 -0.25, 8.5 0" stroke="none" stroke-width="0" fill="#000000"></path></g><g transform="translate(10 284.75974543460256) rotate(0 47.5 0.5)"><path d="M95 1 L81.34 7.2 L81.47 -5.48 L95 1" stroke="none" stroke-width="0" fill="#000000" fill-rule="evenodd"></path><path d="M95 1 C90.31 3.13, 85.62 5.25, 81.34 7.2 M95 1 C90.03 3.26, 85.05 5.51, 81.34 7.2 M81.34 7.2 C81.38 3.53, 81.42 -0.13, 81.47 -5.48 M81.34 7.2 C81.37 3.96, 81.41 0.72, 81.47 -5.48 M81.47 -5.48 C85.63 -3.49, 89.78 -1.5, 95 1 M81.47 -5.48 C85.09 -3.75, 88.7 -2.02, 95 1 M95 1 C95 1, 95 1, 95 1 M95 1 C95 1, 95 1, 95 1" stroke="#000000" stroke-width="2" fill="none"></path></g></g><mask></mask></svg>